HIERARCHY
ROOT __0
{
	OFFSET 0.0 0.0 0.0
	CHANNELS 0
	JOINT spine
	{
		OFFSET 0.000162 -0.056932 1.012679
		CHANNELS 6 Xposition Yposition Zposition Xrotation Yrotation Zrotation
		JOINT spine.001
		{
			OFFSET 0.000320 0.008121 0.058438
			CHANNELS 6 Xposition Yposition Zposition Xrotation Yrotation Zrotation
			JOINT spine.002
			{
				OFFSET -0.001292 0.032221 0.118110
				CHANNELS 6 Xposition Yposition Zposition Xrotation Yrotation Zrotation
				JOINT spine.002_end
				{
					OFFSET -0.001419 0.000034 0.121209
					CHANNELS 3 Xrotation Yrotation Zrotation
					End Site
					{
						OFFSET -0.001419 0.000034 0.121209
					}
				}
			}
		}
		JOINT pelvis.L
		{
			OFFSET -0.000000 -0.000000 -0.000000
			CHANNELS 6 Xposition Yposition Zposition Xrotation Yrotation Zrotation
			JOINT pelvis.L_end
			{
				OFFSET -0.072247 0.002503 -0.038786
				CHANNELS 3 Xrotation Yrotation Zrotation
				End Site
				{
					OFFSET -0.072247 0.002503 -0.038786
				}
			}
		}
		JOINT pelvis.R
		{
			OFFSET -0.000324 -0.000000 -0.000000
			CHANNELS 6 Xposition Yposition Zposition Xrotation Yrotation Zrotation
			JOINT pelvis.R_end
			{
				OFFSET 0.072247 0.002503 -0.038786
				CHANNELS 3 Xrotation Yrotation Zrotation
				End Site
				{
					OFFSET 0.072247 0.002503 -0.038786
				}
			}
		}
		JOINT thigh.L
		{
			OFFSET -0.127459 0.002541 -0.038809
			CHANNELS 6 Xposition Yposition Zposition Xrotation Yrotation Zrotation
			JOINT shin.L
			{
				OFFSET 0.014330 -0.016530 -0.429637
				CHANNELS 6 Xposition Yposition Zposition Xrotation Yrotation Zrotation
				JOINT foot.L
				{
					OFFSET 0.003313 0.024476 -0.456592
					CHANNELS 6 Xposition Yposition Zposition Xrotation Yrotation Zrotation
					JOINT toe.L
					{
						OFFSET -0.002644 0.085599 -0.066570
						CHANNELS 6 Xposition Yposition Zposition Xrotation Yrotation Zrotation
						JOINT toe.L_end
						{
							OFFSET 0.000002 0.066666 -0.008452
							CHANNELS 3 Xrotation Yrotation Zrotation
							End Site
							{
								OFFSET 0.000002 0.066666 -0.008452
							}
						}
					}
					JOINT heel.02.L
					{
						OFFSET 0.049654 -0.016617 -0.087640
						CHANNELS 6 Xposition Yposition Zposition Xrotation Yrotation Zrotation
						JOINT heel.02.L_end
						{
							OFFSET -0.079799 -0.000000 -0.005673
							CHANNELS 3 Xrotation Yrotation Zrotation
							End Site
							{
								OFFSET -0.079799 -0.000000 -0.005673
							}
						}
					}
				}
			}
		}
		JOINT thigh.R
		{
			OFFSET 0.127135 0.002541 -0.038809
			CHANNELS 6 Xposition Yposition Zposition Xrotation Yrotation Zrotation
			JOINT shin.R
			{
				OFFSET -0.014330 -0.016530 -0.429637
				CHANNELS 6 Xposition Yposition Zposition Xrotation Yrotation Zrotation
				JOINT foot.R
				{
					OFFSET -0.003313 0.024476 -0.456592
					CHANNELS 6 Xposition Yposition Zposition Xrotation Yrotation Zrotation
					JOINT toe.R
					{
						OFFSET 0.002644 0.085599 -0.066570
						CHANNELS 6 Xposition Yposition Zposition Xrotation Yrotation Zrotation
						JOINT toe.R_end
						{
							OFFSET -0.000001 0.066666 -0.008452
							CHANNELS 3 Xrotation Yrotation Zrotation
							End Site
							{
								OFFSET -0.000001 0.066666 -0.008452
							}
						}
					}
					JOINT heel.02.R
					{
						OFFSET -0.049654 -0.016617 -0.087641
						CHANNELS 6 Xposition Yposition Zposition Xrotation Yrotation Zrotation
						JOINT heel.02.R_end
						{
							OFFSET 0.079897 -0.000000 -0.004051
							CHANNELS 3 Xrotation Yrotation Zrotation
							End Site
							{
								OFFSET 0.079897 -0.000000 -0.004051
							}
						}
					}
				}
			}
		}
	}
	JOINT spine.003
	{
		OFFSET -0.002228 -0.016557 1.310435
		CHANNELS 6 Xposition Yposition Zposition Xrotation Yrotation Zrotation
		JOINT spine.004
		{
			OFFSET -0.003009 0.000086 0.121993
			CHANNELS 6 Xposition Yposition Zposition Xrotation Yrotation Zrotation
			JOINT spine.005
			{
				OFFSET -0.002254 0.000160 0.129929
				CHANNELS 3 Xrotation Yrotation Zrotation
				JOINT spine.006
				{
					OFFSET -0.000135 -0.000162 0.071697
					CHANNELS 3 Xrotation Yrotation Zrotation
					JOINT spine.006_end
					{
						OFFSET -0.000571 -0.002162 0.198302
						CHANNELS 3 Xrotation Yrotation Zrotation
						End Site
						{
							OFFSET -0.000571 -0.002162 0.198302
						}
					}
				}
			}
		}
		JOINT shoulder.L
		{
			OFFSET -0.003009 0.000086 0.121993
			CHANNELS 6 Xposition Yposition Zposition Xrotation Yrotation Zrotation
			JOINT upper_arm.L
			{
				OFFSET -0.150343 0.010516 0.017190
				CHANNELS 6 Xposition Yposition Zposition Xrotation Yrotation Zrotation
				JOINT forearm.L
				{
					OFFSET -0.168473 -0.042919 -0.099665
					CHANNELS 6 Xposition Yposition Zposition Xrotation Yrotation Zrotation
					JOINT hand.L
					{
						OFFSET -0.195861 -0.007323 -0.130223
						CHANNELS 3 Xrotation Yrotation Zrotation
						JOINT hand.L_end
						{
							OFFSET -0.061460 0.002182 -0.033437
							CHANNELS 3 Xrotation Yrotation Zrotation
							End Site
							{
								OFFSET -0.061460 0.002182 -0.033437
							}
						}
					}
				}
			}
		}
		JOINT shoulder.R
		{
			OFFSET -0.003009 0.000086 0.121993
			CHANNELS 6 Xposition Yposition Zposition Xrotation Yrotation Zrotation
			JOINT upper_arm.R
			{
				OFFSET 0.160819 0.010516 0.017190
				CHANNELS 6 Xposition Yposition Zposition Xrotation Yrotation Zrotation
				JOINT forearm.R
				{
					OFFSET 0.168473 -0.042919 -0.099665
					CHANNELS 3 Xrotation Yrotation Zrotation
					JOINT hand.R
					{
						OFFSET 0.201860 0.019004 -0.120869
						CHANNELS 3 Xrotation Yrotation Zrotation
						JOINT hand.R_end
						{
							OFFSET 0.060711 0.010731 -0.033206
							CHANNELS 3 Xrotation Yrotation Zrotation
							End Site
							{
								OFFSET 0.060711 0.010731 -0.033206
							}
						}
					}
				}
			}
		}
		JOINT breast.L
		{
			OFFSET -0.074125 -0.086365 0.053266
			CHANNELS 6 Xposition Yposition Zposition Xrotation Yrotation Zrotation
			JOINT breast.L_end
			{
				OFFSET -0.000000 0.139200 0.000000
				CHANNELS 3 Xrotation Yrotation Zrotation
				End Site
				{
					OFFSET -0.000000 0.139200 0.000000
				}
			}
		}
		JOINT breast.R
		{
			OFFSET 0.078582 -0.086365 0.053266
			CHANNELS 6 Xposition Yposition Zposition Xrotation Yrotation Zrotation
			JOINT breast.R_end
			{
				OFFSET 0.000000 0.139200 0.000000
				CHANNELS 3 Xrotation Yrotation Zrotation
				End Site
				{
					OFFSET 0.000000 0.139200 0.000000
				}
			}
		}
	}
}
MOTION
Frames: 4
Frame Time: 0.016667
0.000162 -0.056933 1.012679 0.000021 0.000025 -0.000018 0.000320 0.008121 0.058438 0.000017 -0.000016 0.000047 -0.001292 0.032221 0.118110 -0.000014 0.000010 0.000011 -0.000000 0.000000 -0.000000 -0.000000 0.000000 0.000000 -0.000005 -0.000031 0.000027 0.000000 -0.000002 0.000000 -0.000324 0.000000 0.000000 0.000008 -0.000047 0.000004 0.000000 -0.000002 -0.000000 -0.127459 0.002541 -0.038809 4.007780 -9.245501 8.290444 0.014331 -0.016530 -0.429637 -21.450703 -5.419837 9.626182 0.003315 0.024476 -0.456592 4.261018 -5.499120 19.995280 -0.002642 0.085598 -0.066572 37.206776 -0.000163 0.000334 -0.000001 -0.000002 -0.000004 0.049654 -0.016617 -0.087642 -0.000085 4.066228 0.000194 0.000000 0.000000 0.000002 0.127135 0.002541 -0.038809 37.048565 -1.487218 -7.939954 -0.014330 -0.016530 -0.429637 -41.164765 0.993514 -3.911540 -0.003314 0.024476 -0.456592 17.912934 7.997349 -10.295029 0.002643 0.085598 -0.066572 0.944651 0.000041 -0.000197 0.000000 0.000000 0.000005 -0.049654 -0.016617 -0.087642 -0.000095 -2.902790 -0.000222 0.000002 -0.000000 -0.000005 -0.002228 -0.016557 1.310436 0.079258 6.069531 -3.141451 -0.003009 0.000086 0.121992 1.312689 3.894270 -2.671711 1.312712 3.894271 -2.671678 1.312669 3.894272 -2.671660 -0.000001 -0.000000 -0.000001 -0.003009 0.000086 0.121992 1.166005 18.559209 -16.657045 -0.150343 0.010516 0.017190 6.729701 -21.093559 -103.374046 -0.168473 -0.042919 -0.099665 27.023893 -8.622376 -45.668431 -1.822366 14.229571 -23.737469 0.000002 -0.000000 -0.000001 -0.003009 0.000086 0.121992 1.265928 14.928756 -24.329824 0.160819 0.010516 0.017190 -43.179117 35.327774 52.704748 -2.275438 -0.226653 -3.774155 28.184400 -30.183620 -4.739139 0.000002 0.000002 0.000002 -0.074125 -0.086365 0.053266 0.000024 0.000000 0.000002 0.000000 0.000000 -0.000000 0.078582 -0.086365 0.053266 0.000033 -0.000003 -0.000043 -0.000000 0.000001 0.000000 
0.000162 -0.056933 1.012679 0.000021 0.000025 -0.000018 0.000320 0.008121 0.058438 0.000017 -0.000016 0.000047 -0.001292 0.032221 0.118110 -0.000014 0.000010 0.000011 -0.000000 0.000000 -0.000000 -0.000000 0.000000 0.000000 -0.000005 -0.000031 0.000027 0.000000 -0.000002 0.000000 -0.000324 0.000000 0.000000 0.000008 -0.000047 0.000004 0.000000 -0.000002 -0.000000 -0.127459 0.002541 -0.038809 7.391358 -8.611341 9.234867 0.014330 -0.016530 -0.429637 -26.394407 -6.112703 9.372330 0.003315 0.024476 -0.456592 0.268848 -6.398646 16.585199 -0.002642 0.085598 -0.066572 40.487442 -0.000182 0.000362 -0.000002 -0.000002 -0.000004 0.049654 -0.016617 -0.087642 -0.000088 4.066228 0.000194 0.000001 -0.000001 0.000003 0.127135 0.002541 -0.038809 37.612417 0.985131 -3.726918 -0.014330 -0.016530 -0.429637 -41.414511 1.480351 -3.128096 -0.003314 0.024476 -0.456592 18.520232 6.729394 -7.098704 0.002643 0.085598 -0.066572 1.953985 0.000029 -0.000196 -0.000001 0.000000 -0.000001 -0.049654 -0.016617 -0.087642 -0.000097 -2.902792 -0.000219 -0.000001 -0.000000 -0.000000 -0.002228 -0.016557 1.310436 0.442598 5.938243 -3.434128 -0.003009 0.000086 0.121992 1.433010 3.920226 -2.788832 1.433008 3.920223 -2.788796 1.433016 3.920240 -2.788785 0.000000 -0.000002 0.000001 -0.003009 0.000086 0.121992 2.881343 17.871069 -17.501825 -0.150343 0.010516 0.017190 1.254665 -18.120159 -105.639346 -0.168473 -0.042919 -0.099665 25.590040 -7.254101 -42.899271 -1.422005 25.163993 -15.806197 -0.000001 -0.000002 0.000000 -0.003009 0.000086 0.121992 2.900437 14.954402 -25.794527 0.160819 0.010516 0.017190 -41.159826 34.688270 49.729385 -0.869027 -0.290507 -1.416355 36.717260 -32.348356 1.417213 0.000001 -0.000001 -0.000001 -0.074125 -0.086365 0.053266 0.000024 -0.000000 0.000002 0.000000 0.000000 -0.000000 0.078582 -0.086365 0.053266 0.000033 -0.000003 -0.000044 0.000000 -0.000000 0.000000 
0.000162 -0.056933 1.012679 0.000021 0.000025 -0.000018 0.000320 0.008121 0.058438 0.000017 -0.000016 0.000047 -0.001292 0.032221 0.118110 -0.000014 0.000010 0.000011 -0.000000 0.000000 -0.000000 -0.000000 0.000000 0.000000 -0.000005 -0.000031 0.000027 0.000000 -0.000002 0.000000 -0.000324 0.000000 0.000000 0.000008 -0.000047 0.000004 0.000000 -0.000002 -0.000000 -0.127459 0.002541 -0.038809 10.974009 -7.689691 10.291482 0.014330 -0.016530 -0.429637 -32.181328 -6.819925 9.067359 0.003315 0.024476 -0.456592 -4.091154 -6.827792 13.029671 -0.002642 0.085598 -0.066572 42.983190 -0.000200 0.000372 -0.000001 -0.000002 -0.000002 0.049654 -0.016617 -0.087642 -0.000088 4.066224 0.000195 -0.000000 0.000000 0.000001 0.127135 0.002541 -0.038809 37.558633 3.007652 -0.518476 -0.014330 -0.016530 -0.429637 -41.815866 1.811595 -2.688492 -0.003314 0.024476 -0.456592 18.939806 5.501398 -4.323119 0.002643 0.085598 -0.066572 3.896763 0.000048 -0.000199 0.000002 0.000000 -0.000001 -0.049654 -0.016617 -0.087642 -0.000097 -2.902794 -0.000219 0.000001 -0.000001 -0.000001 -0.002228 -0.016557 1.310435 0.754971 5.654972 -3.764440 -0.003009 0.000086 0.121992 1.557220 3.928207 -2.958660 1.557217 3.928223 -2.958625 1.557229 3.928208 -2.958615 0.000001 0.000000 0.000001 -0.003009 0.000086 0.121992 4.311429 16.972156 -18.371558 -0.150343 0.010516 0.017190 -4.341378 -15.692450 -107.064383 -0.168473 -0.042919 -0.099665 23.746823 -5.671326 -39.464153 0.563557 35.900431 -10.268264 0.000000 0.000001 0.000000 -0.003009 0.000086 0.121992 4.301610 14.873705 -27.377369 0.160819 0.010516 0.017190 -38.791448 34.394237 47.028007 0.498713 -0.297109 0.875122 44.269687 -32.767430 7.499485 0.000002 0.000001 -0.000000 -0.074125 -0.086365 0.053266 0.000024 -0.000000 0.000002 0.000000 -0.000001 -0.000000 0.078582 -0.086365 0.053266 0.000033 -0.000003 -0.000044 0.000000 0.000000 -0.000001 
0.000162 -0.056933 1.012679 0.000021 0.000025 -0.000018 0.000320 0.008121 0.058438 0.000017 -0.000016 0.000047 -0.001292 0.032221 0.118110 -0.000014 0.000010 0.000011 -0.000000 0.000000 -0.000000 -0.000000 0.000000 0.000000 -0.000005 -0.000031 0.000027 0.000000 -0.000002 0.000000 -0.000324 0.000000 0.000000 0.000008 -0.000047 0.000004 0.000000 -0.000002 -0.000000 -0.127459 0.002541 -0.038809 14.725157 -6.552972 11.477346 0.014331 -0.016530 -0.429637 -38.943300 -7.311640 8.749268 0.003315 0.024476 -0.456592 -8.708744 -6.818255 9.498160 -0.002642 0.085598 -0.066572 43.887900 -0.000180 0.000385 -0.000001 -0.000001 -0.000006 0.049654 -0.016617 -0.087642 -0.000085 4.066223 0.000195 0.000000 0.000001 -0.000001 0.127135 0.002541 -0.038809 36.736084 4.505380 1.583195 -0.014330 -0.016530 -0.429637 -42.029275 1.970486 -2.687815 -0.003314 0.024476 -0.456592 19.397601 4.315571 -2.088426 0.002643 0.085598 -0.066572 4.835980 0.000063 -0.000213 -0.000001 0.000001 0.000000 -0.049654 -0.016617 -0.087642 -0.000098 -2.902790 -0.000220 0.000000 -0.000000 -0.000000 -0.002228 -0.016557 1.310435 0.973332 5.189673 -4.128163 -0.003009 0.000086 0.121993 1.675984 3.911236 -3.195005 1.675974 3.911245 -3.194971 1.675978 3.911240 -3.194960 -0.000001 -0.000002 0.000001 -0.003010 0.000086 0.121993 5.233681 15.907171 -19.414748 -0.150343 0.010516 0.017190 -10.007811 -14.164205 -107.514493 -0.168473 -0.042919 -0.099665 21.387566 -3.899619 -35.230433 4.689157 45.472415 -8.597546 -0.000002 0.000003 -0.000004 -0.003009 0.000086 0.121993 5.291768 14.690487 -29.061837 0.160818 0.010516 0.017190 -36.012374 34.408663 44.882044 1.769875 -0.254160 3.005540 50.367434 -31.937398 12.594412 0.000000 0.000002 -0.000003 -0.074125 -0.086365 0.053266 0.000024 0.000000 0.000002 0.000000 0.000000 -0.000000 0.078582 -0.086365 0.053266 0.000033 -0.000002 -0.000044 -0.000000 -0.000000 -0.000001 
